<svg width="25" height="24" viewBox="0 0 25 24" fill="none" xmlns="http://www.w3.org/2000/svg">
<g clip-path="url(#clip0_68_552)">
<path d="M21.5 18.5C21.5 19.881 20.381 21 19 21H6C4.6195 21 3.5 19.881 3.5 18.5V5.5C3.5 4.119 4.6195 3 6 3H19C20.381 3 21.5 4.119 21.5 5.5V18.5Z" fill="#01C36A"/>
<path d="M17.015 12.8C16.69 12.35 16.22 12.04 15.615 11.875C15.615 11.875 16.125 11.69 16.585 11C16.86 10.56 17 10.03 17 9.41C17 8.335 16.61 7.51 15.83 6.945C15.05 6.38 14.17 6 12.675 6H8V18H13.215C14.63 17.99 15.695 17.685 16.42 17.1C17.14 16.505 17.5 15.625 17.5 14.45C17.5 13.8 17.34 13.25 17.015 12.8ZM11 8C11 8 13.085 8 13.125 8C13.885 8 14.5 8.615 14.5 9.375C14.5 10.135 13.885 10.75 13.125 10.75C13.085 10.75 11 10.75 11 10.75V8ZM13.5 16H11V13H13.5C14.33 13 15 13.67 15 14.5C15 15.33 14.33 16 13.5 16Z" fill="#100F0F"/>
</g>
<defs>
<clipPath id="clip0_68_552">
<rect width="24" height="24" fill="white" transform="translate(0.5)"/>
</clipPath>
</defs>
</svg>
