<svg width="24" height="24" viewBox="0 0 24 24" fill="none" xmlns="http://www.w3.org/2000/svg">
<g style="mix-blend-mode:luminosity" clip-path="url(#clip0_60_219)">
<path d="M12 2C6.5 2 2 6.5 2 12C2 17.5 6.5 22 12 22C17.5 22 22 17.5 22 12C22 6.5 17.5 2 12 2ZM6.428 17.572C4.928 16.072 4.1425 14.072 4.1425 12.144L11.928 19.8575C9.928 19.7855 7.928 19.0715 6.428 17.572ZM13.7135 19.644L4.357 10.2855C5.1425 6.7855 8.2855 4.1425 12 4.1425C14.643 4.1425 16.928 5.428 18.357 7.357L17.285 8.285C16.0715 6.6425 14.1425 5.5715 11.9995 5.5715C9.214 5.5715 6.8565 7.357 5.9275 9.857L14.142 18.0715C16.214 17.357 17.785 15.5715 18.285 13.4285H14.857V12H19.857C19.857 15.7145 17.214 18.857 13.714 19.643L13.7135 19.644Z" fill="#01C36A"/>
</g>
<defs>
<clipPath id="clip0_60_219">
<rect width="24" height="24" fill="white"/>
</clipPath>
</defs>
</svg>
