<svg width="25" height="24" viewBox="0 0 25 24" fill="none" xmlns="http://www.w3.org/2000/svg">
<g clip-path="url(#clip0_60_239)">
<path d="M3.70067 1.92001C2.99942 1.92001 2.42004 2.49939 2.42004 3.20064V20.7994C2.42004 21.5006 2.99942 22.08 3.70067 22.08H21.2994C22.0007 22.08 22.58 21.5025 22.58 20.7994V3.20064C22.58 2.49939 22.0025 1.92001 21.2994 1.92001H3.70067ZM3.70067 2.88001H21.2994C21.4775 2.88001 21.62 3.02251 21.62 3.20064V20.7994C21.62 20.9775 21.4775 21.12 21.2994 21.12H3.70067C3.52254 21.12 3.38004 20.9775 3.38004 20.7994V3.20064C3.38004 3.02251 3.52254 2.88001 3.70067 2.88001ZM11.54 11.04V17.0756C11.54 18.0019 11.1894 18.24 10.58 18.24C9.94254 18.24 9.50004 17.8425 9.20754 17.3269L7.70004 18.24C8.13692 19.1644 9.20754 20.16 10.6925 20.16C12.335 20.16 13.46 19.2863 13.46 17.3681V11.04H11.54ZM17.5175 11.04C15.8825 11.04 14.8344 12.0863 14.8344 13.4606C14.8344 14.9513 15.7138 15.6563 17.0357 16.2188L17.4932 16.4156C18.3275 16.7813 18.74 17.0044 18.74 17.6325C18.74 18.1556 18.3425 18.5344 17.5832 18.5344C16.6794 18.5344 16.2519 17.9213 15.86 17.28L14.42 18.24C14.9582 19.3031 15.9238 20.16 17.6244 20.16C19.3644 20.16 20.66 19.2563 20.66 17.6081C20.66 16.0781 19.7825 15.3975 18.2244 14.73L17.7669 14.535C16.9813 14.1938 16.64 13.9725 16.64 13.4231C16.64 12.9788 16.9813 12.6375 17.5175 12.6375C18.0444 12.6375 18.3819 12.8606 18.695 13.4231L20.1219 12.5081C19.52 11.445 18.6819 11.04 17.5175 11.04Z" fill="#01C36A"/>
</g>
<defs>
<clipPath id="clip0_60_239">
<rect width="24" height="24" fill="white" transform="translate(0.5)"/>
</clipPath>
</defs>
</svg>
