<svg width="25" height="24" viewBox="0 0 25 24" fill="none" xmlns="http://www.w3.org/2000/svg">
<g clip-path="url(#clip0_68_448)">
<path d="M9.987 15.75C9.987 16.164 9.6515 16.5 9.237 16.5C8.8225 16.5 8.487 16.164 8.487 15.75V8.75C8.487 8.4235 8.6985 8.1345 9.0095 8.035C9.322 7.936 9.6605 8.05 9.849 8.3165L18.2375 20.1685C20.8085 18.3545 22.5 15.3675 22.5 12C22.5 6.5 18 2 12.5 2C7 2 2.5 6.5 2.5 12C2.5 17.5 7 22 12.5 22C14.096 22 15.603 21.6115 16.945 20.939L9.987 11.108V15.75ZM14.987 8.25C14.987 7.836 15.3225 7.5 15.737 7.5C16.1515 7.5 16.487 7.836 16.487 8.25V15.17L14.987 13.0565V8.25Z" fill="#01C36A"/>
</g>
<defs>
<clipPath id="clip0_68_448">
<rect width="24" height="24" fill="white" transform="translate(0.5)"/>
</clipPath>
</defs>
</svg>
