<svg width="24" height="24" viewBox="0 0 24 24" fill="none" xmlns="http://www.w3.org/2000/svg">
<ellipse cx="12.2343" cy="12" rx="1.91223" ry="1.91223" fill="#01C36A"/>
<path d="M22.9687 12C22.9687 12.4472 22.7465 12.9225 22.2404 13.4063C21.7329 13.8913 20.9721 14.3511 19.9908 14.7478C18.0308 15.5401 15.2887 16.0415 12.2343 16.0415C9.17995 16.0415 6.43785 15.5401 4.47786 14.7478C3.49655 14.3511 2.73575 13.8913 2.22832 13.4063C1.72215 12.9225 1.5 12.4472 1.5 12C1.5 11.5527 1.72215 11.0774 2.22832 10.5937C2.73575 10.1087 3.49655 9.64888 4.47786 9.25218C6.43785 8.45984 9.17995 7.95844 12.2343 7.95844C15.2887 7.95844 18.0308 8.45984 19.9908 9.25218C20.9721 9.64888 21.7329 10.1087 22.2404 10.5937C22.7465 11.0774 22.9687 11.5527 22.9687 12Z" stroke="#01C36A"/>
<path d="M17.6015 2.70379C17.9889 2.92743 18.2894 3.35745 18.4553 4.03769C18.6216 4.71964 18.6394 5.60841 18.4923 6.65659C18.1984 8.75017 17.2616 11.3756 15.7344 14.0208C14.2072 16.666 12.402 18.79 10.7358 20.0912C9.90156 20.7427 9.12297 21.1717 8.44924 21.3686C7.77719 21.5651 7.25452 21.5199 6.86717 21.2962C6.47983 21.0726 6.17931 20.6426 6.01343 19.9623C5.84713 19.2804 5.82934 18.3916 5.97644 17.3434C6.27025 15.2498 7.20707 12.6244 8.73427 9.97924C10.2615 7.33405 12.0667 5.21003 13.7329 3.90879C14.5671 3.2573 15.3457 2.82833 16.0195 2.63138C16.6915 2.43491 17.2142 2.48016 17.6015 2.70379Z" stroke="#01C36A"/>
<path d="M6.8672 2.70378C7.25455 2.48015 7.77722 2.4349 8.44927 2.63137C9.123 2.82832 9.90159 3.2573 10.7358 3.90878C12.402 5.21002 14.2073 7.33404 15.7345 9.97923C17.2617 12.6244 18.1985 15.2498 18.4923 17.3434C18.6394 18.3916 18.6216 19.2804 18.4553 19.9623C18.2894 20.6426 17.9889 21.0726 17.6015 21.2962C17.2142 21.5199 16.6915 21.5651 16.0195 21.3686C15.3458 21.1717 14.5672 20.7427 13.733 20.0912C12.0668 18.79 10.2615 16.666 8.7343 14.0208C7.2071 11.3756 6.27028 8.75016 5.97647 6.65659C5.82936 5.6084 5.84716 4.71963 6.01346 4.03769C6.17934 3.35744 6.47986 2.92742 6.8672 2.70378Z" stroke="#01C36A"/>
</svg>
