<svg width="25" height="24" viewBox="0 0 25 24" fill="none" xmlns="http://www.w3.org/2000/svg">
<g clip-path="url(#clip0_68_456)">
<g clip-path="url(#clip1_68_456)">
<path d="M21.1544 13.345C20.3159 13.3493 19.5891 13.5509 18.98 13.8509C18.7573 13.4064 18.5317 13.0152 18.4938 12.7243C18.4496 12.385 18.3983 12.1824 18.4515 11.7778C18.5048 11.3731 18.7391 10.8005 18.7352 10.7578C18.7319 10.715 18.6829 10.5091 18.1991 10.5053C17.7152 10.5019 17.3015 10.5984 17.2525 10.7261C17.2035 10.8538 17.1104 11.1413 17.0528 11.4413C16.9679 11.88 16.0871 13.4448 15.5864 14.2632C15.4227 13.9435 15.2835 13.6622 15.2547 13.4395C15.2106 13.1002 15.1592 12.8976 15.2125 12.493C15.2658 12.0883 15.5 11.5157 15.4962 11.473C15.4928 11.4302 15.4439 11.2243 14.96 11.2205C14.4762 11.2171 14.0624 11.3136 14.0135 11.4413C13.9645 11.569 13.9127 11.8675 13.8138 12.1565C13.7144 12.4454 12.5432 15.0552 12.2365 15.7315C12.08 16.0762 11.9442 16.3531 11.8482 16.5422L11.8477 16.5413C11.8477 16.5413 11.8419 16.5538 11.8314 16.5754C11.7493 16.7362 11.7003 16.8254 11.7003 16.8254C11.7003 16.8254 11.7008 16.8269 11.7018 16.8288C11.6365 16.9469 11.5669 17.0568 11.5323 17.0568C11.5083 17.0568 11.4599 16.7419 11.5429 16.3104C11.7171 15.4051 12.1357 13.993 12.1319 13.9445C12.1299 13.9195 12.2096 13.6738 11.8583 13.5446C11.517 13.4198 11.3951 13.6282 11.3639 13.6286C11.3336 13.6291 11.3111 13.7021 11.3111 13.7021C11.3111 13.7021 11.6917 12.1142 10.5853 12.1142C9.89409 12.1142 8.93601 12.8707 8.46369 13.5562C8.16609 13.7184 7.52865 14.0664 6.85233 14.4379C6.59265 14.5805 6.32769 14.7264 6.07617 14.8651C6.05889 14.8464 6.04209 14.8272 6.02433 14.8085C4.68321 13.3776 2.20449 12.3658 2.30961 10.4424C2.34801 9.74304 2.59089 7.90177 7.07313 5.66833C10.7447 3.83857 13.6842 4.34209 14.192 5.45809C14.9178 7.05217 12.621 10.0152 8.80833 10.4424C7.35537 10.6051 6.59073 10.0421 6.40017 9.83232C6.20001 9.61152 6.17025 9.60145 6.09537 9.64321C5.97345 9.71089 6.05073 9.90577 6.09537 10.0219C6.20913 10.3181 6.67617 10.8437 7.47297 11.1048C8.17377 11.3347 9.87921 11.461 11.9423 10.6632C14.2525 9.76945 16.0563 7.28353 15.5269 5.20561C14.9879 3.09217 11.4839 2.39761 8.16753 3.57553C6.19377 4.27681 4.05729 5.37745 2.52081 6.81409C0.693934 8.52289 0.403054 10.0099 0.523054 10.631C0.949774 12.839 3.99249 14.2766 5.21121 15.3422C5.15121 15.3754 5.09457 15.4066 5.04321 15.4349C4.43217 15.7373 2.11281 16.9512 1.53249 18.2338C0.874414 19.6886 1.63713 20.7326 2.14257 20.8733C3.70737 21.3086 5.31345 20.5253 6.17649 19.2379C7.03953 17.951 6.93393 16.2754 6.53793 15.5102C6.53313 15.5006 6.52737 15.4915 6.52257 15.4819C6.68049 15.3883 6.84129 15.2938 7.00065 15.2002C7.31169 15.0178 7.61697 14.8474 7.88193 14.7029C7.73361 15.109 7.62513 15.5957 7.56849 16.2989C7.50225 17.125 7.84065 18.1925 8.28369 18.6125C8.47857 18.7973 8.71329 18.8016 8.86209 18.8016C9.37761 18.8016 9.61281 18.373 9.87153 17.8656C10.1893 17.2435 10.4711 16.5197 10.4711 16.5197C10.4711 16.5197 10.1173 18.4757 11.0811 18.4757C11.432 18.4757 11.7853 18.0202 11.9427 17.7883C11.9432 17.7907 11.9432 17.7922 11.9432 17.7922C11.9432 17.7922 11.9523 17.7773 11.9701 17.7466C12.0066 17.6909 12.0272 17.6554 12.0272 17.6554C12.0272 17.6554 12.0282 17.6515 12.0291 17.6453C12.1703 17.4005 12.4832 16.8418 12.9527 15.9202C13.5589 14.7298 14.1407 13.2389 14.1407 13.2389C14.1407 13.2389 14.1949 13.6037 14.372 14.2061C14.4762 14.5608 14.6979 14.953 14.8727 15.3288C14.732 15.5242 14.6456 15.636 14.6456 15.636C14.6456 15.636 14.6466 15.6379 14.648 15.6418C14.5357 15.791 14.4095 15.9518 14.2775 16.1093C13.7989 16.6795 13.2287 17.3304 13.1523 17.5186C13.0626 17.7398 13.0837 17.903 13.2575 18.0336C13.3842 18.1291 13.6103 18.144 13.8464 18.1282C14.2765 18.0994 14.5794 17.9923 14.7287 17.9275C14.9615 17.8454 15.2327 17.7158 15.4871 17.5286C15.9565 17.1835 16.2397 16.6896 16.2128 16.0354C16.1979 15.6749 16.0827 15.3178 15.9373 14.9803C15.98 14.9189 16.0227 14.8574 16.0655 14.7946C16.8056 13.7122 17.3797 12.5232 17.3797 12.5232C17.3797 12.5232 17.4339 12.888 17.6111 13.4904C17.7008 13.7957 17.8779 14.1283 18.0368 14.4547C17.3408 15.0202 16.9093 15.6773 16.7591 16.1083C16.4821 16.9056 16.6991 17.267 17.1061 17.3491C17.2904 17.3866 17.5511 17.3021 17.7469 17.219C17.9907 17.1384 18.2835 17.0035 18.5571 16.8024C19.0266 16.4573 19.4783 15.9739 19.4509 15.3197C19.4384 15.0221 19.3578 14.7264 19.2483 14.4422C19.8383 14.1965 20.6024 14.0597 21.5754 14.1734C23.6629 14.4173 24.0723 15.7205 23.9941 16.2658C23.9159 16.8115 23.4781 17.111 23.3317 17.2018C23.1853 17.2925 23.1407 17.3237 23.1531 17.3909C23.1709 17.4888 23.2386 17.485 23.3634 17.4638C23.5352 17.435 24.4592 17.0203 24.4991 16.0133C24.549 14.7374 23.324 13.3334 21.1544 13.345ZM5.06577 18.769C4.37457 19.523 3.40833 19.8082 2.99409 19.5682C2.54673 19.309 2.72385 18.1982 3.57249 17.3981C4.08945 16.9104 4.75713 16.4611 5.20017 16.1842C5.30097 16.1237 5.44881 16.0344 5.62881 15.9264C5.65857 15.9096 5.67537 15.9 5.67537 15.9L5.67489 15.899C5.70945 15.8784 5.74545 15.8568 5.78193 15.8347C6.09057 16.9742 5.79153 17.9774 5.06577 18.769ZM10.1024 15.3446C9.86145 15.9317 9.35745 17.4336 9.05073 17.353C8.78721 17.2838 8.62689 16.1419 8.99793 15.0187C9.18465 14.4533 9.58353 13.7774 9.81825 13.5149C10.1955 13.093 10.6112 12.9547 10.712 13.1261C10.8411 13.344 10.2536 14.9765 10.1024 15.3446ZM14.264 17.3304C14.1618 17.3837 14.0682 17.4173 14.025 17.3914C13.9928 17.3722 14.0672 17.3021 14.0672 17.3021C14.0672 17.3021 14.5875 16.7419 14.793 16.487C14.912 16.3387 15.0507 16.1626 15.201 15.9658C15.2024 15.9854 15.2029 16.0051 15.2029 16.0243C15.201 16.6954 14.553 17.148 14.264 17.3304ZM17.4699 16.5994C17.3936 16.5451 17.4066 16.3699 17.6567 15.8246C17.7551 15.6106 17.9792 15.2496 18.3695 14.905C18.4146 15.0466 18.4424 15.1824 18.4415 15.3091C18.4362 16.1534 17.8338 16.4688 17.4699 16.5994Z" fill="#01C36A"/>
</g>
</g>
<defs>
<clipPath id="clip0_68_456">
<rect width="24" height="24" fill="white" transform="translate(0.5)"/>
</clipPath>
<clipPath id="clip1_68_456">
<rect width="24" height="24" fill="white" transform="translate(0.5)"/>
</clipPath>
</defs>
</svg>
