<svg width="24" height="24" viewBox="0 0 24 24" fill="none" xmlns="http://www.w3.org/2000/svg">
<g clip-path="url(#clip0_68_536)">
<g clip-path="url(#clip1_68_536)">
<path d="M23.395 7.081C22.907 6.874 22.342 7.079 22.105 7.553C21.881 8.001 21.582 8.276 21.191 8.391C20.579 8.574 19.848 8.339 19.506 8.138C19.055 7.873 18.532 7.471 17.979 7.046C16.214 5.688 14.018 4 11 4C8.58605 4 7.34605 5.239 5.29305 7.293C4.90205 7.684 4.89905 8.32 5.29005 8.71C5.67005 9.092 6.28005 9.104 6.67205 8.74C6.68205 8.731 6.69205 8.721 6.70205 8.712C7.25405 8.286 10.732 8.7 12.252 9.908C14.511 11.703 16.142 13 18 13C20.659 13 22.879 11.259 23.94 8.342C24.121 7.844 23.882 7.291 23.395 7.081ZM18.395 14.081C17.907 13.874 17.342 14.079 17.105 14.553C16.881 15.001 16.582 15.276 16.191 15.391C15.579 15.571 14.848 15.339 14.506 15.138C14.055 14.873 13.532 14.471 12.979 14.046C11.214 12.688 9.01805 11 6.00005 11C3.58605 11 2.34605 12.239 0.293045 14.293C-0.0979547 14.684 -0.100955 15.32 0.290045 15.71C0.670045 16.092 1.28105 16.105 1.67305 15.74C1.68305 15.731 1.69305 15.721 1.70305 15.712C2.25405 15.286 5.73405 15.7 7.25305 16.908C9.51104 18.703 11.142 20 13 20C15.659 20 17.879 18.259 18.94 15.342C19.121 14.844 18.882 14.291 18.395 14.081Z" fill="#01C36A"/>
</g>
</g>
<defs>
<clipPath id="clip0_68_536">
<rect width="24" height="24" fill="white"/>
</clipPath>
<clipPath id="clip1_68_536">
<rect width="24" height="24" fill="white"/>
</clipPath>
</defs>
</svg>
