<svg width="25" height="24" viewBox="0 0 25 24" fill="none" xmlns="http://www.w3.org/2000/svg">
<g clip-path="url(#clip0_60_271)">
<path d="M2.90004 1.92001C2.77274 1.92003 2.65066 1.9706 2.56065 2.06062C2.47063 2.15063 2.42006 2.27271 2.42004 2.40001V21.6C2.42006 21.7273 2.47063 21.8494 2.56065 21.9394C2.65066 22.0294 2.77274 22.08 2.90004 22.08H22.1C22.2273 22.08 22.3494 22.0294 22.4394 21.9394C22.5295 21.8494 22.58 21.7273 22.58 21.6V2.40001C22.58 2.27271 22.5295 2.15063 22.4394 2.06062C22.3494 1.9706 22.2273 1.92003 22.1 1.92001H2.90004ZM3.38004 2.88001H21.62V21.12H3.38004V2.88001ZM7.70004 11.04V12.6938H10.1V20.16H12.02V12.6938H14.42V11.04H7.70004ZM18.1119 11.0447C16.6169 11.0388 14.9085 11.4918 14.9085 13.5956C14.9085 16.346 18.6144 16.3467 18.6144 17.5875C18.6144 17.7051 18.6643 18.5597 17.3563 18.5597C16.0483 18.5597 14.9582 17.7375 14.9582 17.7375V19.7335C14.9582 19.7335 20.661 21.578 20.661 17.4188C20.6605 14.7188 16.9204 14.8538 16.9204 13.5122C16.9204 12.9924 17.2897 12.5063 18.3125 12.5063C19.3354 12.5063 20.241 13.11 20.241 13.11L20.3085 11.3316C20.3085 11.3316 19.2747 11.0493 18.1119 11.0447Z" fill="#01C36A"/>
</g>
<defs>
<clipPath id="clip0_60_271">
<rect width="24" height="24" fill="white" transform="translate(0.5)"/>
</clipPath>
</defs>
</svg>
