<svg width="24" height="24" viewBox="0 0 24 24" fill="none" xmlns="http://www.w3.org/2000/svg">
<g clip-path="url(#clip0_60_406)">
<path d="M4.93805 6.75733C3.91805 6.75733 2.88252 7.15507 2.71002 7.37257C2.66502 7.46257 2.56066 8.18995 2.80816 8.18995C2.89066 8.18995 2.92851 8.20431 3.16851 8.09181C4.06851 7.73931 4.63875 7.74757 4.72125 7.74757C5.73375 7.65007 6.31857 8.34042 6.22857 9.23292V9.75733C5.37357 9.55483 4.88508 9.54786 4.64508 9.54786C3.40008 9.47286 2.25006 10.1293 2.25006 11.5723C2.25006 13.1548 3.66252 13.4932 4.21002 13.4707C5.02752 13.4782 5.80775 13.1107 6.32525 12.4732C6.73775 13.3957 7.00037 13.3345 7.00787 13.3345C7.08287 13.3345 7.14269 13.3046 7.20269 13.2671L7.63043 12.9668C7.70543 12.9218 7.76502 12.8473 7.77252 12.7573C7.76502 12.5398 7.37484 12.2023 7.40484 11.4448V9.10548C7.44984 8.46048 7.24072 7.82931 6.80572 7.34181C6.28822 6.90681 5.60555 6.69733 4.93805 6.75733ZM19.4678 6.75733C17.9678 6.75733 17.106 7.69448 17.1285 8.64698C17.1285 9.95198 18.4477 10.3657 18.5977 10.4107C19.8652 10.8082 20.0382 10.8226 20.3907 11.1226C20.6907 11.4301 20.653 12.0305 20.2105 12.293C20.083 12.368 19.5349 12.6974 18.2974 12.4424C17.8849 12.3599 17.6681 12.2626 17.3306 12.1201C17.2406 12.0901 17.0303 12.0375 17.0303 12.315V12.6826C17.0303 12.8551 17.135 13.0119 17.2925 13.0869C18.08 13.4844 19.0251 13.5 19.2276 13.5C19.2576 13.5 20.9821 13.5009 21.5596 12.3369C21.6789 12.0969 21.9877 11.2207 21.4102 10.4707C20.9302 9.90821 20.5177 9.84815 19.2877 9.47315C19.1827 9.44315 18.2753 9.20978 18.2828 8.57228C18.2378 7.75478 19.3481 7.7106 19.5806 7.7256C20.5181 7.7106 20.9824 8.06198 21.2374 8.08448C21.3499 8.08448 21.4029 8.01769 21.4029 7.86769V7.52198C21.4104 7.43948 21.3805 7.35804 21.3355 7.29054C21.0355 6.90054 19.8878 6.75733 19.4678 6.75733ZM8.08306 6.94483C8.00056 6.95983 7.94062 7.04251 7.95562 7.12501C7.97062 7.22251 7.98551 7.32048 8.02301 7.41798L9.70318 12.9595C9.74068 13.1395 9.85963 13.3352 10.1221 13.3052H10.7374C11.1124 13.3427 11.1649 12.9823 11.1724 12.9448L12.2754 8.32472L13.3931 12.9522C13.4006 12.9897 13.4534 13.35 13.8209 13.3125H14.4434C14.7134 13.3425 14.841 13.1468 14.8785 12.9668C16.7685 6.88431 16.6403 7.2978 16.6553 7.2378C16.6853 6.9228 16.5052 6.94466 16.4752 6.95216H15.8072C15.4697 6.91466 15.4032 7.22286 15.3882 7.29786L14.1431 12.1055L13.0181 7.29786C12.9656 6.93036 12.6654 6.94466 12.5904 6.95216H12.0132C11.6832 6.92216 11.6007 7.18536 11.5782 7.29786L10.4605 12.0381L9.2608 7.29786C9.2308 7.14786 9.13289 6.91483 8.84039 6.94483H8.08306ZM4.89264 10.418C5.43264 10.4255 5.89875 10.507 6.22125 10.582C6.22125 10.957 6.2349 11.1674 6.1524 11.5049C6.0474 11.8649 5.58334 12.5182 4.48834 12.5332C3.85834 12.5632 3.44596 12.0674 3.48346 11.5049C3.44596 10.6049 4.37514 10.3805 4.89264 10.418ZM21.7808 15.0015C21.0808 15.0112 20.2545 15.168 19.6275 15.6079C19.434 15.7422 19.4679 15.9286 19.6832 15.9038C20.3882 15.8191 21.9574 15.6288 22.2379 15.9873C22.5191 16.3458 21.9268 17.8248 21.6651 18.4863C21.5841 18.6836 21.7553 18.7652 21.9361 18.6152C23.1091 17.6327 23.4139 15.5731 23.1739 15.2769C23.0535 15.1287 22.4809 14.9917 21.7808 15.0015ZM0.912655 15.7515C0.749108 15.774 0.678666 15.9813 0.849666 16.1455C3.78742 18.901 7.6693 20.25 11.9795 20.25C15.0538 20.25 18.6227 19.2469 21.0865 17.3569C21.4937 17.0427 21.1468 16.5718 20.7291 16.7578C17.9668 17.9766 14.9666 18.564 12.2359 18.564C8.1889 18.564 4.27112 17.7191 1.10162 15.7998C1.03224 15.7578 0.96717 15.744 0.912655 15.7515Z" fill="#01C36A"/>
</g>
<defs>
<clipPath id="clip0_60_406">
<rect width="24" height="24" fill="white"/>
</clipPath>
</defs>
</svg>
