<svg width="25" height="24" viewBox="0 0 25 24" fill="none" xmlns="http://www.w3.org/2000/svg">
<path d="M5.03245 15.5462L5.06281 15.2729C5.11866 14.7703 4.77833 14.3093 4.28153 14.2147C3.8827 14.1387 3.47883 14.3196 3.26994 14.6677L3.17647 14.8235L2.66176 15.7794L2.44643 16.246C2.29633 16.5712 2.18272 16.912 2.10767 17.2623C2.03609 17.5963 2 17.9369 2 18.2785V18.7206V19.233C2 19.5279 2.02913 19.8221 2.08697 20.1113L2.12777 20.3153C2.18929 20.6229 2.297 20.9195 2.44723 21.1949C2.58952 21.4558 2.76845 21.6949 2.97856 21.905L3.47059 22.397L3.67045 22.5569C4.02423 22.84 4.42823 23.0537 4.86125 23.1869C5.06121 23.2485 5.26616 23.2924 5.47375 23.3184L5.62602 23.3374C6.09872 23.3965 6.57719 23.3923 7.04878 23.325L7.36765 23.2794C8.29643 23.0839 9.202 22.7909 10.0693 22.4054L10.0882 22.397L11.4118 21.7353L12.5882 21.147L13.4706 20.7794L14.6471 20.3382L14.7003 20.3178C15.3003 20.087 15.9234 19.9213 16.5588 19.8235L17.7353 19.6765L18.6912 19.4559L19.0286 19.3434C19.3901 19.2229 19.7325 19.0517 20.0458 18.8348L20.118 18.7848C20.3908 18.5959 20.6347 18.3683 20.842 18.1092L20.8804 18.0612C21.0379 17.8644 21.1695 17.6481 21.2719 17.4177C21.3648 17.2086 21.4331 16.9893 21.4752 16.7644L21.5566 16.3306C21.607 16.0618 21.6324 15.7888 21.6324 15.5153V15.2504C21.6324 15.0646 21.6096 14.8794 21.5645 14.6991L21.461 14.2852C21.4288 14.1563 21.3622 14.0386 21.2682 13.9447L21.258 13.9344C20.9774 13.6539 20.5226 13.6539 20.242 13.9344C20.1418 14.0347 20.014 14.1031 19.875 14.1309L19.3552 14.2348C19.1107 14.2837 18.8593 14.2866 18.6138 14.2433C18.0546 14.1446 17.5635 13.8133 17.2625 13.3317L17.0992 13.0704C17.0337 12.9657 16.9903 12.8488 16.9715 12.7268C16.9033 12.2833 16.5217 11.9559 16.0729 11.9559H14.9888C14.547 11.9559 14.1797 12.296 14.1458 12.7364C14.1369 12.8521 14.1043 12.9647 14.0501 13.0672L13.9538 13.2491C13.6538 13.8157 13.0798 14.1847 12.4397 14.2224L12.2206 14.2353C11.699 14.3301 11.2294 14.6103 10.8982 15.0243L10.5294 15.4853L9.95432 16.0604C9.65182 16.3629 9.32823 16.6435 8.986 16.9002L8.2638 17.4418C8.10822 17.5585 7.93795 17.6542 7.75738 17.7264L7.27671 17.9187C6.83304 18.0962 6.3282 18.0214 5.95506 17.7229C5.86772 17.653 5.78957 17.5724 5.72246 17.4829L5.57895 17.2915C5.30525 16.9266 5.12795 16.4985 5.06343 16.047L5.03743 15.8649C5.02234 15.7593 5.02067 15.6522 5.03245 15.5462Z" stroke="#01C36A"/>
<circle cx="4.94121" cy="12.0294" r="2.04853" stroke="#01C36A" stroke-width="1.05"/>
<path d="M22 1H9.27942L12.2206 9.82353L13.3235 10.1176L15.6765 5.41177L17.9559 10.1176L18.9118 9.82353L22 1Z" stroke="#01C36A"/>
<circle cx="12" cy="12.0294" r="2.04853" stroke="#01C36A" stroke-width="1.05"/>
<circle cx="19.0588" cy="12.0294" r="2.04853" stroke="#01C36A" stroke-width="1.05"/>
</svg>
