<svg width="25" height="24" viewBox="0 0 25 24" fill="none" xmlns="http://www.w3.org/2000/svg">
<path d="M12.75 16.44C12.75 16.44 12.745 16.42 12.74 16.38C12.75 16.42 12.75 16.44 12.75 16.44Z" fill="#01C36A"/>
<path d="M14.1875 4.31249C14.1875 4.31249 14 3.62499 14.25 3.06249C14.5 2.49999 14.5 2.12499 14 1.56249C15 1.49999 15.375 2.18749 15.375 2.18749L15.3875 2.26699C15.4465 2.64999 15.2485 3.01399 14.9145 3.21099C14.6095 3.39049 14.2815 3.71849 14.1875 4.31249Z" fill="#01C36A"/>
<path d="M21.315 18.12C21.325 18.015 21.485 16.6 21.125 15.94C20.375 18.06 19.625 20 17.44 21.375C17.75 20.75 18.25 19.75 18.75 18.25C17.25 20.25 14.25 22.25 12 22.375C13.52 21.535 14.375 20.455 14.75 19.75C14.75 19.75 13.875 20 12.81 20.125C14.25 19.25 15.25 17.69 14.75 15.25C13.75 18.375 12.375 19.375 10.56 19.56C8.75 19.75 7.125 18.81 7.125 18.81L7.75 18.75C7.75 18.75 6.125 17.5 6.69 15.875C6.715 15.795 6.745 15.72 6.78 15.65C7.19 14.74 8.585 15.2 8.44 16.185V16.19C8.44 16.19 8.875 17.375 10.06 17.06C10.44 16.44 10.69 15.81 10.69 15.81L10.875 16.625C10.875 16.625 11.75 16.25 11.75 15.56C12.5 15.845 12.69 16.2 12.735 16.355C12.605 15.655 11.475 10.84 5.49 10.91L4.445 11.88C4.375 11.945 4.265 11.89 4.275 11.8L4.355 11L4.425 10.93C4.405 10.935 4.38 10.93 4.36 10.93L4.355 11L3.945 11.38C3.875 11.445 3.765 11.39 3.775 11.3L3.825 10.79C2.955 10.42 2.875 9.44 2.875 9.44C2.875 9.44 1.79 9.135 2.25 7.75C2.5 7 3.1 6.925 3.355 6.985C3.68 7.06 4.015 7.065 4.325 6.94C4.775 6.76 5.35 6.415 5.75 5.75C6.5 4.5 7.625 4 10.06 4C13.285 4 14.585 4.99 14.735 5.11C14.645 5.005 14.1 4.28 15.25 3.19C16.385 2.11 16.18 1.855 16.135 1.815C16.305 1.865 18.51 2.615 18.75 5.5C19 8.5 15.5 9.125 15.5 9.125C15.5 9.125 20 10 20.06 5.75C20.94 6.25 22.75 8.125 23 12.19C23.245 16.13 21.42 18.015 21.315 18.12Z" fill="#01C36A"/>
<path d="M4.42498 10.93L4.35498 11L4.35998 10.93C4.37998 10.93 4.40498 10.935 4.42498 10.93Z" fill="#01C36A"/>
<path d="M4.42498 10.93L4.35498 11L4.35998 10.93C4.37998 10.93 4.40498 10.935 4.42498 10.93Z" fill="#01C36A"/>
</svg>
