<svg width="184" height="31" viewBox="0 0 184 31" fill="none" xmlns="http://www.w3.org/2000/svg">
<path d="M0.16 30V0.839998H13.264V5.232H6.604V12.468H11.68V16.932H6.604V25.644H13.336V30H0.16ZM16.2616 30V0.839998H20.7976L26.7736 14.88V0.839998H32.1016V30H27.7456L21.7696 14.88V30H16.2616ZM36.4413 30V0.839998H42.8853V12.756L47.7813 0.839998H54.0813L48.6813 14.016L54.3333 30H47.7813L43.5693 17.112L42.8853 18.264V30H36.4413ZM56.975 30V0.839998H63.419V12.648H67.919V0.839998H74.399V30H67.919V17.256H63.419V30H56.975Z" fill="#00AE46"/>
<path d="M78.7317 30L79.2357 0.839998H86.1477L89.3517 17.796L92.8077 0.839998H99.4677L99.9717 30H95.3997L94.8597 10.596L91.4757 30H87.4077L83.8077 10.452L83.3757 30H78.7317ZM112.611 30.432C110.379 30.432 108.627 30.072 107.355 29.352C106.107 28.608 105.231 27.54 104.727 26.148C104.223 24.732 103.971 23.004 103.971 20.964V0.839998H110.343V21.936C110.343 22.536 110.391 23.136 110.487 23.736C110.583 24.336 110.787 24.828 111.099 25.212C111.435 25.596 111.939 25.788 112.611 25.788C113.307 25.788 113.811 25.596 114.123 25.212C114.435 24.828 114.627 24.336 114.699 23.736C114.795 23.136 114.843 22.536 114.843 21.936V0.839998H121.251V20.964C121.251 23.004 120.987 24.732 120.459 26.148C119.955 27.54 119.079 28.608 117.831 29.352C116.583 30.072 114.843 30.432 112.611 30.432ZM125.351 30V0.839998H129.887L135.863 14.88V0.839998H141.191V30H136.835L130.859 14.88V30H125.351ZM145.531 30V0.839998H151.975V12.756L156.871 0.839998H163.171L157.771 14.016L163.423 30H156.871L152.659 17.112L151.975 18.264V30H145.531ZM166.065 30V0.839998H172.509V12.648H177.009V0.839998H183.489V30H177.009V17.256H172.509V30H166.065Z" fill="white"/>
</svg>
