<svg width="24" height="24" viewBox="0 0 24 24" fill="none" xmlns="http://www.w3.org/2000/svg">
<g clip-path="url(#clip0_230_1501)">
<path d="M12 2.3999C6.69839 2.3999 2.39999 6.6983 2.39999 11.9999C2.39999 16.8127 5.94559 20.7871 10.5648 21.4815V14.5439H8.18959V12.0207H10.5648V10.3415C10.5648 7.5615 11.9192 6.3415 14.2296 6.3415C15.336 6.3415 15.9216 6.4239 16.1984 6.4607V8.6631H14.6224C13.6416 8.6631 13.2992 9.5935 13.2992 10.6415V12.0207H16.1736L15.784 14.5439H13.2992V21.5015C17.9848 20.8663 21.6 16.8599 21.6 11.9999C21.6 6.6983 17.3016 2.3999 12 2.3999Z" fill="#00AE46"/>
</g>
<defs>
<clipPath id="clip0_230_1501">
<rect width="24" height="24" fill="white"/>
</clipPath>
</defs>
</svg>
