<svg width="24" height="24" viewBox="0 0 24 24" fill="none" xmlns="http://www.w3.org/2000/svg">
<path d="M7.5 1C3.91624 1 1 3.91624 1 7.5V16.5C1 20.0838 3.91624 23 7.5 23H16.5C20.0838 23 23 20.0838 23 16.5V7.5C23 3.91624 20.0838 1 16.5 1H7.5ZM7.5 2H16.5C19.5432 2 22 4.45676 22 7.5V16.5C22 19.5432 19.5432 22 16.5 22H7.5C4.45676 22 2 19.5432 2 16.5V7.5C2 4.45676 4.45676 2 7.5 2ZM18 5C17.7348 5 17.4804 5.10536 17.2929 5.29289C17.1054 5.48043 17 5.73478 17 6C17 6.26522 17.1054 6.51957 17.2929 6.70711C17.4804 6.89464 17.7348 7 18 7C18.2652 7 18.5196 6.89464 18.7071 6.70711C18.8946 6.51957 19 6.26522 19 6C19 5.73478 18.8946 5.48043 18.7071 5.29289C18.5196 5.10536 18.2652 5 18 5ZM12 6.5C8.96836 6.5 6.5 8.96836 6.5 12C6.5 15.0316 8.96836 17.5 12 17.5C15.0316 17.5 17.5 15.0316 17.5 12C17.5 8.96836 15.0316 6.5 12 6.5ZM12 7.5C14.4912 7.5 16.5 9.5088 16.5 12C16.5 14.4912 14.4912 16.5 12 16.5C9.5088 16.5 7.5 14.4912 7.5 12C7.5 9.5088 9.5088 7.5 12 7.5Z" fill="#00AE46"/>
</svg>
