<svg width="28" height="32" viewBox="0 0 28 32" fill="none" xmlns="http://www.w3.org/2000/svg">
<g clipPath="url(#clip0_320_376)">
<path d="M19.6055 23.9471C20.3244 23.2293 21.4881 23.2312 22.2047 23.9513C22.9213 24.6715 22.9194 25.8372 22.2005 26.5551L19.0082 29.7428C16.0631 32.6836 11.2606 32.7263 8.26578 29.8417C8.24846 29.8252 6.91495 28.5176 2.5158 24.2039C-0.410852 21.3342 -0.702418 16.7424 2.05164 13.7936L7.18655 8.29542C9.9199 5.36855 14.9585 5.04864 18.0836 7.57597L22.7474 11.3477C23.5372 11.9864 23.6605 13.1456 23.0229 13.9368C22.3853 14.7279 21.2281 14.8515 20.4384 14.2128L15.7747 10.4411C14.1402 9.11935 11.2812 9.30089 9.87086 10.8111L4.73587 16.3093C3.39512 17.7449 3.54198 20.0574 5.08706 21.5725C8.31745 24.7401 10.8071 27.1812 10.81 27.184C12.3669 28.6836 14.8845 28.6612 16.4132 27.1347L19.6055 23.9471Z" fill="#00AE46"/>
<path fillRule="evenodd" clipRule="evenodd" d="M11.8506 20.7572C10.8356 20.7572 10.0127 19.9329 10.0127 18.9161C10.0127 17.8993 10.8356 17.075 11.8506 17.075H25.4053C26.4203 17.075 27.2432 17.8993 27.2432 18.9161C27.2432 19.9329 26.4203 20.7572 25.4053 20.7572H11.8506Z" fill="#00AE46"/>
<path fillRule="evenodd" clipRule="evenodd" d="M14.389 0.583308C15.0825 -0.159227 16.2456 -0.198023 16.9868 0.496654C17.728 1.19133 17.7668 2.35643 17.0733 3.09895L4.73593 16.3093C3.39515 17.7447 3.54198 20.0573 5.08697 21.5724L10.7846 27.1594C11.5099 27.8707 11.5223 29.0364 10.8123 29.7629C10.1022 30.4897 8.93859 30.5021 8.21323 29.7908L2.51562 24.2037C-0.410854 21.3339 -0.702417 16.7421 2.05176 13.7935L14.389 0.583308Z" fill="#00AE46"/>
</g>
<defs>
<clipPath id="clip0_320_376">
<rect width="27.3874" height="32" fill="white"/>
</clipPath>
</defs>
</svg>
