<svg width="24" height="24" viewBox="0 0 24 24" fill="none" xmlns="http://www.w3.org/2000/svg">
<g clip-path="url(#clip0_230_1506)">
<path d="M19.68 1.91992H4.32001C2.99521 1.91992 1.92001 2.99512 1.92001 4.31992V19.6799C1.92001 21.0047 2.99521 22.0799 4.32001 22.0799H19.68C21.0048 22.0799 22.08 21.0047 22.08 19.6799V4.31992C22.08 2.99512 21.0048 1.91992 19.68 1.91992ZM8.16001 9.59992V18.7199H5.28001V9.59992H8.16001ZM5.28001 6.94552C5.28001 6.27352 5.85601 5.75992 6.72001 5.75992C7.58401 5.75992 8.12641 6.27352 8.16001 6.94552C8.16001 7.61752 7.62241 8.15992 6.72001 8.15992C5.85601 8.15992 5.28001 7.61752 5.28001 6.94552ZM18.72 18.7199H15.84C15.84 18.7199 15.84 14.2751 15.84 13.9199C15.84 12.9599 15.36 11.9999 14.16 11.9807H14.1216C12.96 11.9807 12.48 12.9695 12.48 13.9199C12.48 14.3567 12.48 18.7199 12.48 18.7199H9.60001V9.59992H12.48V10.8287C12.48 10.8287 13.4064 9.59992 15.2688 9.59992C17.1744 9.59992 18.72 10.9103 18.72 13.5647V18.7199Z" fill="#00AE46"/>
</g>
<defs>
<clipPath id="clip0_230_1506">
<rect width="24" height="24" fill="white"/>
</clipPath>
</defs>
</svg>
