<svg width="24" height="24" viewBox="0 0 24 24" fill="none" xmlns="http://www.w3.org/2000/svg">
<path d="M21.875 16.361C21.832 16.313 20.808 15.181 19.51 15.171C18.83 15.171 18.222 15.454 17.695 16.029C16.922 16.871 15.345 17.879 13.445 17.95C11.847 18.009 10.36 17.402 9.02197 16.145C7.37797 14.601 6.86697 12.129 7.71997 9.84802C8.55397 7.61802 10.472 6.23202 12.851 6.14102L12.895 6.13702C12.919 6.13402 15.197 5.87902 17.22 7.68502C17.39 7.87002 18.374 8.88202 19.695 8.91302C20.518 8.93102 21.281 8.57702 21.965 7.85802C22.567 7.22602 22.835 6.51602 22.762 5.74602C22.608 4.13602 20.956 2.87002 20.732 2.70602C20.52 2.52202 18.854 1.12802 16.256 0.412025C13.736 -0.282975 9.83597 -0.440975 5.57097 2.76102C5.37713 2.91483 5.19122 3.07837 5.01397 3.25102C4.73397 3.45902 4.49097 3.71302 4.29797 4.00402C2.20769 6.39991 1.11165 9.50382 1.23397 12.681C1.44097 18.964 6.49897 21.974 6.87997 22.191C7.14197 22.361 9.78597 24.001 13.375 24C15.481 24 17.913 23.435 20.38 21.678C20.628 21.54 22.094 20.666 22.483 19.158C22.713 18.264 22.525 17.343 21.921 16.421L21.875 16.361ZM4.94297 18.331C4.94297 17.241 5.82997 16.354 6.91997 16.354C8.00997 16.354 8.89697 17.24 8.89697 18.331C8.89697 19.421 8.00997 20.308 6.91997 20.308C5.82997 20.308 4.94297 19.421 4.94297 18.331ZM5.08197 4.67402C5.31797 4.39902 5.53297 4.17602 5.70997 4.00402C6.03231 3.78957 6.41081 3.67511 6.79797 3.67502C7.88797 3.67502 8.77497 4.56202 8.77497 5.65202C8.77497 6.74202 7.88797 7.63002 6.79797 7.63002C5.70797 7.63002 4.82097 6.74302 4.82097 5.65302C4.82097 5.29702 4.91697 4.96302 5.08197 4.67502V4.67402ZM13.249 0.999024C17.203 0.999024 19.906 3.33502 20.075 3.48502L20.118 3.51902C20.538 3.81902 21.65 4.82002 21.748 5.84302C21.792 6.31202 21.622 6.74102 21.228 7.15602C20.751 7.65602 20.245 7.90802 19.724 7.89402C18.76 7.87502 17.981 7.00702 17.964 6.98902L17.922 6.94502C15.63 4.88202 13.092 5.09002 12.792 5.12302C11.7382 5.1592 10.7072 5.4392 9.77997 5.94102C9.84941 5.21202 9.64981 4.48279 9.21878 3.89077C8.78776 3.29875 8.15507 2.88483 7.43997 2.72702C9.54297 1.45002 11.517 0.999024 13.249 0.999024ZM3.88397 6.34002C4.03916 6.99666 4.41116 7.58181 4.93991 8.00096C5.46865 8.4201 6.12325 8.64877 6.79797 8.65002C6.91997 8.65002 7.03797 8.64002 7.15597 8.62602C7.0074 8.90596 6.87713 9.19524 6.76597 9.49202C6.01597 11.495 6.17597 13.632 7.12497 15.346C7.05697 15.341 6.98897 15.336 6.91997 15.336C6.19462 15.3373 5.49432 15.6015 4.94879 16.0795C4.40326 16.5576 4.04947 17.2171 3.95297 17.936C2.902 16.3675 2.31295 14.5352 2.25297 12.648C2.17264 10.4314 2.739 8.23932 3.88297 6.33902L3.88397 6.34002ZM21.497 18.9C21.197 20.074 19.882 20.79 19.87 20.796L19.812 20.832C13.525 25.331 7.67497 21.499 7.42997 21.334L7.39397 21.312C7.38259 21.3054 7.37126 21.2988 7.35997 21.292C8.11524 21.1791 8.79894 20.7821 9.27153 20.1823C9.74411 19.5824 9.96996 18.8248 9.90297 18.064C11.027 18.704 12.239 19.015 13.483 18.97C15.697 18.887 17.54 17.706 18.445 16.72C18.772 16.364 19.115 16.19 19.493 16.19H19.498C20.26 16.194 20.958 16.878 21.091 17.016C21.512 17.674 21.649 18.307 21.497 18.9Z" fill="#01C36A"/>
</svg>
