<svg width="24" height="24" viewBox="0 0 24 24" fill="none" xmlns="http://www.w3.org/2000/svg">
<g clip-path="url(#clip0_60_436)">
<path d="M12 0.960022C11.6569 0.960022 11.3157 1.04627 11.0082 1.21877L2.92317 5.7619C2.30817 6.10877 1.92004 6.75565 1.92004 7.4569V16.5431C1.92004 17.2463 2.30817 17.8931 2.92317 18.24L11.0082 22.7813C11.6232 23.1281 12.3769 23.1281 12.9919 22.7813L21.0769 18.24C21.6938 17.8931 22.08 17.2444 22.08 16.5431V7.4569C22.08 6.75565 21.6919 6.10877 21.0769 5.7619L12.9919 1.21877C12.6844 1.04627 12.3432 0.960022 12 0.960022ZM12 1.92002C12.18 1.92002 12.3619 1.96502 12.5232 2.05502L20.6082 6.59815C20.9288 6.78002 21.12 7.10627 21.12 7.4569V11.52H20.16V10.56H19.2V11.52H18.24V12.48H19.2V13.44H20.16V12.48H21.12V16.5431C21.12 16.8938 20.9288 17.22 20.6063 17.4019L12.5232 21.945C12.2007 22.125 11.7994 22.125 11.4769 21.945L3.39379 17.4019C3.07129 17.22 2.88004 16.8956 2.88004 16.5431V7.4569C2.88004 7.10627 3.07129 6.78002 3.39379 6.59815L11.4769 2.05502C11.6382 1.96502 11.82 1.92002 12 1.92002ZM12 5.76002C8.56317 5.76002 5.76004 8.56315 5.76004 12C5.76004 15.4369 8.56317 18.24 12 18.24C13.9632 18.24 15.7857 17.325 16.9632 15.7744L17.2913 15.3413L14.385 13.6575L14.1225 13.9425C13.5807 14.535 12.8119 14.88 12 14.88C10.4082 14.88 9.12004 13.5919 9.12004 12C9.12004 10.4081 10.4082 9.12002 12 9.12002C12.8119 9.12002 13.5807 9.46502 14.1225 10.0575L14.385 10.3425L17.2913 8.65877L16.9632 8.22565C15.7857 6.67502 13.9632 5.76002 12 5.76002ZM12 6.72002C13.4757 6.72002 14.8257 7.3519 15.8138 8.40565L14.4975 9.1669C13.8038 8.5594 12.9413 8.16002 12 8.16002C9.88692 8.16002 8.16004 9.8869 8.16004 12C8.16004 14.1131 9.88692 15.84 12 15.84C12.9413 15.84 13.8038 15.4406 14.4975 14.8331L15.8138 15.5944C14.8257 16.6481 13.4757 17.28 12 17.28C9.08442 17.28 6.72004 14.9156 6.72004 12C6.72004 9.0844 9.08442 6.72002 12 6.72002ZM15.84 10.56V11.52H14.88V12.48H15.84V13.44H16.8V12.48H17.76V11.52H16.8V10.56H15.84Z" fill="#01C36A"/>
</g>
<defs>
<clipPath id="clip0_60_436">
<rect width="24" height="24" fill="white"/>
</clipPath>
</defs>
</svg>
