<svg width="25" height="24" viewBox="0 0 25 24" fill="none" xmlns="http://www.w3.org/2000/svg">
<g style="mix-blend-mode:luminosity" clip-path="url(#clip0_68_505)">
<path d="M12.0247 2.40002C11.392 2.40002 10.9153 2.47863 10.5266 2.75721C10.1379 3.03579 9.90738 3.41843 9.55816 3.95065C9.33392 4.2924 8.77006 5.29912 7.98973 6.71159C7.2094 8.12406 6.23826 9.90506 5.28973 11.6635C4.34119 13.4219 3.4155 15.1565 2.72566 16.4775C2.38075 17.138 2.09485 17.6948 1.89316 18.1022C1.79232 18.3059 1.7126 18.4719 1.65504 18.6C1.62626 18.6641 1.60331 18.7183 1.58379 18.7697C1.56426 18.8212 1.53223 18.8043 1.53223 19.0116C1.53223 19.6353 1.71881 20.2806 2.2541 21.0563H2.25316C2.55556 21.4957 2.96552 21.8513 3.46348 22.006C3.96143 22.1606 4.57458 22.0486 5.00379 21.6103C5.16336 21.4475 5.23334 21.3123 5.40879 21.0394C5.58424 20.7665 5.81004 20.4029 6.07535 19.9707C6.60598 19.1062 7.29419 17.9669 8.03848 16.7466C9.52705 14.3059 11.2474 11.5339 12.3388 10.0472L12.3519 10.0294C12.4274 9.91765 12.3819 9.95815 12.4635 9.95815C12.5463 9.95815 12.5877 9.94937 12.6454 10.0331L12.65 10.0388L12.6538 10.0444C13.7458 11.532 15.4674 14.3039 16.9579 16.7447C17.7031 17.9651 18.3924 19.1052 18.9238 19.9697C19.1895 20.402 19.4156 20.7656 19.5913 21.0385C19.767 21.3114 19.8379 21.4469 19.9972 21.6094C20.4262 22.0472 21.0377 22.1594 21.5357 22.005C22.0336 21.8507 22.4442 21.495 22.7469 21.0553C23.2823 20.2791 23.4688 19.6331 23.4688 19.0107C23.4688 18.8036 23.4358 18.8202 23.4163 18.7688C23.3968 18.7173 23.3738 18.6632 23.345 18.5991C23.2875 18.4709 23.2078 18.305 23.1069 18.1013C22.9052 17.6938 22.6193 17.1371 22.2744 16.4766C21.5846 15.1556 20.6598 13.4208 19.7113 11.6625C18.7628 9.90424 17.7915 8.12279 17.0113 6.71065C16.2313 5.29887 15.6682 4.29433 15.4438 3.95252V3.95159C15.0914 3.41447 14.8392 3.02562 14.4379 2.75159C14.0363 2.47743 13.553 2.40002 12.9191 2.40002H12.0247ZM12.0247 3.36002H12.9191C13.4809 3.36002 13.71 3.41771 13.896 3.54471C14.082 3.67172 14.2936 3.94988 14.6404 4.47846H14.6413C14.7811 4.69131 15.3923 5.76651 16.1704 7.17471C16.9484 8.58291 17.9186 10.3624 18.8657 12.1181C19.8128 13.8739 20.7377 15.6066 21.4241 16.921C21.7673 17.5782 22.0504 18.1311 22.2463 18.5269C22.3442 18.7248 22.4209 18.8839 22.4694 18.9919C22.4845 19.0256 22.4912 19.043 22.5004 19.065C22.493 19.4994 22.4009 19.8665 21.9566 20.5107C21.7534 20.8059 21.4744 21.0191 21.2516 21.0882C21.0288 21.1572 20.8881 21.147 20.6825 20.9372C20.7347 20.9904 20.5671 20.78 20.3985 20.5182C20.2299 20.2563 20.0063 19.8969 19.7422 19.4672C19.214 18.6078 18.5238 17.4676 17.7772 16.245C16.2861 13.8032 14.5767 11.0447 13.4338 9.48659C13.1476 9.07401 12.6834 8.99815 12.4635 8.99815C12.2437 8.99815 11.8161 9.12158 11.5625 9.48377L11.5644 9.47909C11.5632 9.48082 11.561 9.48487 11.5597 9.48659C11.5587 9.48803 11.5569 9.48796 11.556 9.4894L11.4716 9.61221V9.62346C10.33 11.1966 8.67854 13.8531 7.2191 16.246C6.47347 17.4685 5.78438 18.6088 5.25691 19.4682C4.99317 19.8978 4.76996 20.2582 4.6016 20.52C4.43325 20.7819 4.26501 20.9917 4.31754 20.9382V20.9391C4.11171 21.1493 3.97124 21.1583 3.74848 21.0891C3.52571 21.0199 3.24746 20.8066 3.04441 20.5116C2.60007 19.8677 2.50803 19.5018 2.50066 19.066C2.50981 19.044 2.51562 19.0273 2.53066 18.9938C2.5792 18.8858 2.65584 18.7257 2.75379 18.5278C2.9497 18.1321 3.23373 17.5791 3.57691 16.9219C4.26329 15.6075 5.18725 13.8749 6.13441 12.1191C7.08158 10.3632 8.05157 8.58419 8.82973 7.17565C9.60788 5.76711 10.2203 4.69137 10.3607 4.47752C10.7103 3.94462 10.9156 3.66049 11.0863 3.53815C11.257 3.41581 11.4642 3.36002 12.0247 3.36002Z" fill="#01C36A"/>
</g>
<defs>
<clipPath id="clip0_68_505">
<rect width="24" height="24" fill="white" transform="translate(0.5)"/>
</clipPath>
</defs>
</svg>
