<svg width="24" height="24" viewBox="0 0 24 24" fill="none" xmlns="http://www.w3.org/2000/svg">
<g clip-path="url(#clip0_59_144)">
<path d="M18.2456 1.92C18.0356 1.91813 17.8481 2.05125 17.7825 2.25188L15.3956 9.60001H8.60434L6.21747 2.25188C6.15372 2.05875 5.97559 1.92563 5.77122 1.92C5.56684 1.91626 5.38309 2.04 5.30997 2.23126L2.43372 9.90751C2.43184 9.90751 2.43184 9.90938 2.42997 9.91126L0.989968 13.7513C0.914968 13.9538 0.982468 14.1806 1.15872 14.3081L11.715 21.9844L11.7168 21.9881C11.7187 21.9881 11.7187 21.9881 11.7187 21.99C11.7243 21.9938 11.7318 21.9975 11.7375 22.0013C11.745 22.005 11.7506 22.0106 11.7581 22.0144C11.76 22.0144 11.76 22.0163 11.7618 22.0163C11.7618 22.0163 11.7637 22.0181 11.7656 22.0181C11.7675 22.02 11.7693 22.0219 11.7731 22.0219C11.775 22.0238 11.7787 22.0256 11.7806 22.0275C11.79 22.0313 11.8012 22.0369 11.8125 22.0406C11.8125 22.0406 11.8125 22.0406 11.8125 22.0425C11.8237 22.0463 11.835 22.05 11.8443 22.0538C11.8462 22.0538 11.8462 22.0538 11.8481 22.0556C11.8556 22.0575 11.8631 22.0594 11.8725 22.0631C11.8762 22.0631 11.88 22.065 11.8856 22.065C11.8856 22.0669 11.8856 22.0669 11.8856 22.065C11.895 22.0688 11.9043 22.0706 11.9137 22.0725C11.9268 22.0744 11.9381 22.0763 11.9512 22.0781C11.97 22.0781 11.9906 22.08 12.0093 22.08C12.0281 22.0781 12.045 22.0781 12.0618 22.0744C12.0693 22.0744 12.075 22.0744 12.0825 22.0725C12.0825 22.0725 12.0843 22.0725 12.0862 22.0725C12.09 22.0706 12.0918 22.0706 12.0956 22.0706C12.0975 22.0706 12.0993 22.0688 12.1031 22.0688C12.1068 22.0669 12.1125 22.0669 12.1162 22.065C12.1237 22.0631 12.1293 22.0613 12.135 22.0594C12.1387 22.0594 12.1406 22.0594 12.1425 22.0575C12.1443 22.0575 12.1462 22.0575 12.1481 22.0575C12.1556 22.0538 12.165 22.05 12.1725 22.0481C12.1818 22.0444 12.1893 22.0406 12.1968 22.0369C12.1987 22.0369 12.1987 22.0369 12.2006 22.035C12.2025 22.035 12.2043 22.035 12.2062 22.0331C12.21 22.0313 12.2137 22.0294 12.2175 22.0275C12.2287 22.0219 12.2381 22.0163 12.2475 22.0106C12.2512 22.0088 12.2531 22.0069 12.255 22.005C12.2568 22.005 12.2587 22.0031 12.2606 22.0031C12.2681 21.9975 12.2756 21.9938 12.2831 21.9881L12.2868 21.9825L22.8431 14.3081C23.0175 14.1806 23.085 13.9538 23.01 13.7513L21.5737 9.92438C21.5718 9.92063 21.57 9.915 21.57 9.91126L18.69 2.23126C18.6187 2.04563 18.4443 1.92188 18.2456 1.92ZM5.72809 3.85313L7.59559 9.60001H3.57372L5.72809 3.85313ZM18.2718 3.85313L20.4281 9.60001H16.4043L18.2718 3.85313ZM3.87184 10.56H7.90684L10.7175 19.2075L3.87184 10.56ZM8.91747 10.56H15.0825L12 20.0475L8.91747 10.56ZM16.0931 10.56H20.1281L13.2825 19.2075L16.0931 10.56ZM3.02997 11.0438L9.44997 19.1531L2.01747 13.7475L3.02997 11.0438ZM20.97 11.0438L21.9825 13.7475L14.55 19.1531L20.97 11.0438Z" fill="#01C36A"/>
</g>
<defs>
<clipPath id="clip0_59_144">
<rect width="24" height="24" fill="white"/>
</clipPath>
</defs>
</svg>
