<svg width="24" height="24" viewBox="0 0 24 24" fill="none" xmlns="http://www.w3.org/2000/svg">
<g clip-path="url(#clip0_60_293)">
<g clip-path="url(#clip1_60_293)">
<path d="M12.512 24.013C12.4566 24.0129 12.4015 24.0038 12.349 23.986L11.75 23.78C11.6499 23.7455 11.5634 23.6802 11.5028 23.5934C11.4423 23.5066 11.4108 23.4028 11.413 23.297C11.413 23.281 11.44 21.84 11.125 20.952C10.2472 20.2446 9.46618 19.4249 8.802 18.514C8.47317 18.066 8.17386 17.597 7.906 17.11C6.90067 15.2993 6.41806 13.245 6.512 11.176C6.69 7.31302 8.238 3.80402 10.757 1.55102C11.162 1.18802 11.373 0.843018 11.441 0.434018C11.4593 0.32179 11.5153 0.219173 11.5999 0.143157C11.6845 0.0671409 11.7925 0.0222855 11.906 0.0160177C12.156 -0.0179823 12.351 0.154018 12.416 0.379018C12.529 0.781018 12.737 1.21902 12.986 1.57902C13.071 1.74102 13.287 1.97302 13.478 2.17602C14.416 3.17602 16.367 5.25802 17.303 9.51402C18.234 15.12 15.641 18.582 14.013 20.15C13.654 20.5 13.373 20.719 13.236 20.823C13.1464 20.9345 13.0823 21.0642 13.048 21.203C12.921 21.789 12.977 23.044 13.01 23.478C13.0158 23.5605 13.0012 23.6431 12.9676 23.7186C12.9339 23.7941 12.8822 23.8602 12.817 23.911C12.729 23.977 12.622 24.0128 12.512 24.013ZM11.923 1.76002C11.7744 1.95346 11.6076 2.13227 11.425 2.29402C9.104 4.36902 7.678 7.62302 7.511 11.222C7.42678 13.1074 7.86747 14.9792 8.784 16.629C9.027 17.071 9.305 17.507 9.609 17.922C10.584 19.25 11.564 20.033 11.841 20.242C11.9125 20.2951 11.9681 20.3667 12.002 20.449C12.048 20.558 12.089 20.675 12.125 20.796C12.201 20.571 12.324 20.356 12.497 20.144C12.5239 20.111 12.5548 20.0814 12.589 20.056C12.682 19.989 12.955 19.785 13.283 19.476C14.806 17.997 17.173 14.831 16.322 9.70302C15.449 5.74102 13.692 3.86702 12.749 2.85902C12.431 2.52002 12.221 2.29602 12.118 2.06602C12.0486 1.96691 11.9835 1.86482 11.923 1.76002Z" fill="#01C36A"/>
</g>
</g>
<defs>
<clipPath id="clip0_60_293">
<rect width="24" height="24" fill="white"/>
</clipPath>
<clipPath id="clip1_60_293">
<rect width="24" height="24" fill="white"/>
</clipPath>
</defs>
</svg>
